<?xml version="1.0" standalone="no"?>
<!DOCTYPE svg PUBLIC "-//W3C//DTD SVG 20010904//EN"
 "http://www.w3.org/TR/2001/REC-SVG-20010904/DTD/svg10.dtd">
<svg version="1.0" xmlns="http://www.w3.org/2000/svg"
 width="104.000000pt" height="104.000000pt" viewBox="0 0 104.000000 104.000000"
 preserveAspectRatio="xMidYMid meet">
<metadata>
Created by potrace 1.13, written by Peter Selinger 2001-2015
</metadata>
<g transform="translate(0.000000,104.000000) scale(0.100000,-0.100000)"
fill="#ffffff" stroke="none">
<path d="M230 892 c-8 -3 -18 -10 -22 -16 -13 -19 -9 -104 6 -118 7 -7 113
-62 235 -123 121 -60 221 -112 221 -115 0 -3 -98 -54 -217 -114 -120 -59 -226
-115 -235 -124 -23 -20 -25 -104 -2 -126 8 -9 17 -16 20 -16 2 0 139 68 304
150 l300 150 0 73 c0 58 -4 77 -18 89 -31 29 -577 295 -592 290z"/>
</g>
</svg>
